<?xml version="1.0" encoding="UTF-8"?>
<svg version="1.1" xmlns="http://www.w3.org/2000/svg" width="129" height="124">
<path d="M0 0 C1.52254646 -0.01441132 1.52254646 -0.01441132 3.07585144 -0.02911377 C4.72113579 -0.03548859 4.72113579 -0.03548859 6.3996582 -0.04199219 C8.09612236 -0.0505423 8.09612236 -0.0505423 9.82685852 -0.05926514 C12.22343001 -0.06871821 14.62001452 -0.07525033 17.01660156 -0.07910156 C20.66860941 -0.08878281 24.32004868 -0.11979407 27.97192383 -0.15136719 C30.30199862 -0.15789982 32.63207743 -0.16314927 34.9621582 -0.16699219 C36.59226082 -0.18551239 36.59226082 -0.18551239 38.2552948 -0.20440674 C45.78012837 -0.18249856 51.68951036 0.51749603 57.76293945 5.34863281 C63.66149995 12.72183343 64.94241398 18.7286876 64.01293945 28.16113281 C62.35466123 39.64573734 58.52469629 50.30866608 49.2199707 57.72753906 C41.35700025 62.83499067 33.20892942 64.09875394 23.96191406 64.45092773 C12.74357927 64.8983279 1.17739004 65.52089839 -6.98706055 74.16113281 C-12.13013817 80.86230097 -13.93871353 89.11650739 -15.98706055 97.16113281 C-28.16298543 95.51456646 -28.16298543 95.51456646 -32.98706055 91.16113281 C-40.30886692 80.81612898 -38.40816897 69.48037601 -36.44799805 57.68847656 C-35.94595454 54.80307598 -35.42843465 51.92121324 -34.89868164 49.04077148 C-34.36313316 46.10451366 -33.85984259 43.16388783 -33.3581543 40.22167969 C-31.09861463 27.46069639 -28.83379898 15.02468897 -18.0769043 6.55957031 C-12.39885552 2.76005356 -6.90973763 0.05283383 0 0 Z " fill="#00C8E9" transform="translate(37.987060546875,-0.1611328125)"/>
<path d="M0 0 C6.82984614 0.17390812 11.70213329 1.59111773 17 6 C21.48818813 10.96062898 22.63950413 16.4652257 23 23 C22.57665641 28.68982363 21.46402249 34.29381235 20.37988281 39.88818359 C19.87676857 42.49085101 19.40486631 45.09773298 18.9375 47.70703125 C16.41384872 61.46659953 14.05918452 73.46918104 3 83 C-2.67449913 86.56706231 -8.21980499 89.1023227 -14.97119141 89.17700195 C-15.98299469 89.18983719 -16.99479797 89.20267242 -18.03726196 89.21589661 C-19.13098114 89.22328354 -20.22470032 89.23067047 -21.3515625 89.23828125 C-22.48016693 89.246353 -23.60877136 89.25442474 -24.77157593 89.26274109 C-27.16394516 89.27658121 -29.55633413 89.28730368 -31.94873047 89.29516602 C-35.58990497 89.31233452 -39.23016106 89.35621773 -42.87109375 89.40039062 C-45.19791 89.41052168 -47.52473397 89.41903649 -49.8515625 89.42578125 C-50.93313629 89.44328934 -52.01471008 89.46079742 -53.12905884 89.47883606 C-60.6011092 89.45762752 -67.13914244 88.44953597 -72.87783813 83.32221985 C-77.39605585 78.58656506 -78.70642527 73.83788903 -79.375 67.375 C-79.08777329 58.14784195 -75.66504261 48.48075571 -69 42 C-60.84389004 35.40065792 -51.79418445 34.77406071 -41.6875 34.125 C-28.93835223 33.15645541 -18.43965145 30.9699873 -9.375 21.3125 C-4.05412448 14.98148034 -1.74038781 7.97677746 0 0 Z " fill="#5B43FF" transform="translate(106,35)"/>
</svg>
